<svg width="370" height="40" xmlns="http://www.w3.org/2000/svg">
 <!-- Created with Method Draw - http://github.com/duopixel/Method-Draw/ -->

 <g>
  <rect fill="none" id="canvas_background" height="42" width="372" y="-1" x="-1"/>
  <g display="none" overflow="visible" y="0" x="0" height="100%" width="100%" id="canvasGrid">
   <rect fill="url(#gridpattern)" stroke-width="0" y="0" x="0" height="100%" width="100%"/>
  </g>
 </g>
 <g>
  <style transform="matrix(0.01085069392704302,0,0,0.01085069392704302,0,0) " type="text/css">.st0{fill:#F07838;}
	.st1{fill:#282828;}
	.st2{fill:#FFFFFF;}</style>
  <g stroke="null" id="svg_28">
   <g stroke="null" transform="matrix(0.45676687110084113,0,0,0.45676687110084113,-11883.734322278082,-8216.030605742844) " id="svg_5">
    <path stroke="null" id="svg_6" d="m26138.337582,18057.596689c-4.3,3 -11.1,4.5 -20.5,4.5l-13.3,0c-1.8,0 -3.7,0 -5.8,-0.1c-2,-0.1 -4.1,-0.3 -6.1,-0.7c-1.9,-0.4 -3.8,-1 -5.7,-1.8c-3.7,-1.6 -6.6,-4.5 -8.1,-8.3c-0.9,-2.4 -1.3,-4.9 -1.2,-7.4l0,-45.2l12.1,0l0,44.5c0,4.7 4.5,7 13.4,7l16.3,0c8.8,0 13.2,-2.3 13.2,-7l0,-44.5l12,0l0,45.2c0.1,6.2 -2.1,10.8 -6.3,13.8zm97,4.9l0,-41.3l-25.9,38c-0.8,1.2 -1.9,2.3 -3.1,3c-1.2,0.7 -2.5,1 -3.8,1c-2.9,0 -5.6,-1.5 -7.1,-4l-26.4,-38.4l0,41.7l-12.1,0l0,-56.9c-0.1,-1.9 0.5,-3.7 1.8,-5.1c1.2,-1.2 2.9,-1.9 4.7,-1.9c2.6,-0.1 5.1,1.1 6.6,3.3l32.5,45.5l31.8,-45.4c1.4,-2.2 3.8,-3.5 6.4,-3.4c1.8,-0.1 3.6,0.7 4.9,2.1c1.3,1.5 1.9,3.4 1.8,5.4l0,56.4l-12.1,0z" class="st1"/>
    <g stroke="null" id="svg_7">
     <path stroke="null" id="svg_8" d="m26259.237582,18062.096689l12.1,0l0,-63.5l-12.1,0l0,63.5zm64.8,-47.7l-11.5,18.9l23.2,0l-11.7,-18.9zm29,48l-10,-17.1l-37.4,0l-9.8,17.1l-14.3,0l36.1,-59.5c1.8,-2.9 4,-4.3 6.8,-4.3s5,1.4 6.9,4.2l35.4,59.6l-13.7,0zm-287,-28.7c0,19.4 -7.3,27.6 -19.8,30.2c-12.5,2.7 -16.5,2.6 -16.5,2.6l-0.1,-13.1c5,-0.3 12.5,-1.1 17.2,-2.9c4.3,-1.7 7.8,-5.8 7.4,-16.8l0.2,-23.3l0,-11.9l12.1,0l-0.5,35.2l0,0z" class="st1"/>
    </g>
    <g stroke="null" id="svg_9">
     <path stroke="null" id="svg_10" d="m26424.237582,18052.396689l-16.3,-8.4l-16.3,8.4l3.1,-17.9l-13.2,-12.6l18.2,-2.6l8.1,-16.3l8.2,16.3l18.2,2.6l-13.2,12.6l3.2,17.9zm-16.3,-57c-19.7,0 -35.7,15.8 -35.7,35.2c0,19.4 16,35.2 35.7,35.2s35.7,-15.8 35.7,-35.2s-16,-35.2 -35.7,-35.2z" class="st0"/>
    </g>
    <g stroke="null" id="svg_11">
     <g stroke="null" id="svg_12">
      <path stroke="null" id="svg_13" d="m26773.937582,18065.796689c-3.6,0.1 -7.1,-0.3 -10.6,-1.2c-2.6,-0.7 -4.9,-2 -6.8,-3.9c-1.8,-2 -3,-4.4 -3.6,-7c-0.7,-3.5 -1.1,-7.1 -1,-10.6l0,-20.8c-0.1,-3.6 0.3,-7.1 1,-10.6c0.5,-2.6 1.8,-5 3.6,-7c1.9,-1.9 4.2,-3.2 6.8,-3.9c3.5,-0.9 7,-1.3 10.6,-1.2l40,0l0,9.7l-40,0c-2.1,0 -4.1,0.2 -6.1,0.6c-1.4,0.3 -2.7,1.1 -3.6,2.1c-1,1.1 -1.6,2.5 -1.8,4c-0.3,2.1 -0.5,4.2 -0.5,6.3l0,5.5l51.8,0l0,9.5l-51.9,0l0,5.8c0,2.1 0.1,4.3 0.5,6.4c0.2,1.5 0.8,2.8 1.8,3.9c1,1 2.3,1.7 3.6,2c2,0.4 4.1,0.6 6.1,0.6l40.2,0l0,9.7l-40.1,0l0,0.1z" class="st1"/>
      <path stroke="null" id="svg_14" d="m26773.137582,18066.196689c-3.3,0 -6.6,-0.4 -9.8,-1.2c-2.6,-0.7 -5,-2.1 -6.9,-4c-1.8,-2 -3.1,-4.5 -3.7,-7.2c-0.7,-3.5 -1.1,-7.1 -1,-10.7l0,-20.7c-0.1,-3.6 0.3,-7.2 1,-10.7c0.6,-2.7 1.8,-5.2 3.7,-7.2c1.9,-1.9 4.3,-3.3 7,-4c3.5,-0.9 7.1,-1.3 10.7,-1.2l40.4,0l0,10.5l-40.4,0c-2,0 -4,0.2 -6,0.6c-1.3,0.3 -2.5,1 -3.4,2c-0.9,1.1 -1.5,2.4 -1.7,3.8c-0.3,2 -0.5,4.1 -0.5,6.2l0,5.2l51.8,0l0,10.3l-51.9,0l0,5.4c0,2.1 0.1,4.2 0.5,6.3c0.2,1.4 0.8,2.7 1.7,3.8c0.9,0.9 2.1,1.6 3.4,1.9c2,0.4 4,0.6 6,0.6l40.5,0l0,10.2l-40.5,0c-0.4,0 -0.6,0.1 -0.9,0.1zm0,-66.2c-3.3,0 -6.5,0.4 -9.7,1.2c-2.5,0.6 -4.8,1.9 -6.6,3.8c-1.7,1.9 -2.9,4.3 -3.5,6.8c-0.7,3.4 -1.1,7 -1,10.5l0,20.8c-0.1,3.5 0.3,7.1 1,10.6c0.5,2.5 1.7,4.9 3.5,6.8c1.8,1.8 4.1,3.1 6.6,3.8c3.4,0.9 7,1.3 10.5,1.2l39.8,0l0,-9l-39.8,0c-2.1,0 -4.1,-0.1 -6.2,-0.6c-1.5,-0.3 -2.8,-1 -3.8,-2.1c-1,-1.2 -1.7,-2.6 -1.9,-4.1c-0.4,-2.1 -0.5,-4.3 -0.5,-6.4l0,-6.2l51.9,0l0,-8.8l-51.8,0l0,-5.9c0,-2.1 0.1,-4.2 0.5,-6.3c0.2,-1.5 0.9,-3 1.9,-4.2c1,-1.1 2.4,-1.9 3.8,-2.2c2,-0.5 4.1,-0.7 6.2,-0.6l39.6,0l0,-9l-39.6,0c-0.4,-0.1 -0.7,-0.1 -0.9,-0.1z" class="st1"/>
     </g>
     <g stroke="null" id="svg_15">
      <path stroke="null" id="svg_16" d="m26650.937582,18065.796689l-38.9,-24.1l0,24.2l-9.8,0l0,-66.3l44,0c3.9,0 7.3,0.3 10.1,0.8c2.8,0.5 5.2,1.5 7.1,2.9c1.9,1.4 3.2,3.4 4.1,6c0.9,2.6 1.4,5.9 1.4,10.1l0,4.2c0,3.8 -0.5,6.9 -1.4,9.4c-0.9,2.5 -2.3,4.5 -4.1,6c-1.9,1.5 -4.2,2.5 -7.1,3.2c-2.8,0.6 -6.2,0.9 -10.1,0.9l-14.5,0l38,22.9l-18.8,0l0,-0.2zm8.1,-46.5c0,-2.1 -0.2,-3.9 -0.5,-5.2c-0.3,-1.3 -1,-2.4 -1.9,-3.1c-1,-0.7 -2.3,-1.2 -3.9,-1.5c-1.7,-0.3 -3.8,-0.4 -6.5,-0.4l-34.2,0l0,24.8l34.2,0c2.6,0 4.7,-0.1 6.4,-0.4c1.7,-0.3 3,-0.8 3.9,-1.5c1,-0.7 1.6,-1.8 2,-3.2c0.4,-1.4 0.6,-3.1 0.6,-5.3l0,-4.2l-0.1,0z" class="st1"/>
      <path stroke="null" id="svg_17" d="m26673.237582,18066.796689l-22.6,0l-37.6,-23.3l0,23.4l-11.8,0l0,-68.3l45,0c3.9,0 7.4,0.3 10.3,0.8c3,0.5 5.5,1.6 7.5,3.1c2,1.5 3.5,3.7 4.5,6.4c0.9,2.7 1.4,6.2 1.4,10.4l0,4.2c0,3.9 -0.5,7.1 -1.4,9.7c-1,2.7 -2.5,4.8 -4.5,6.4c-2,1.6 -4.5,2.7 -7.5,3.4c-2.9,0.6 -6.4,0.9 -10.3,0.9l-11,0l38,22.9zm-22,-2l14.8,0l-38,-22.9l18.1,0c3.8,0 7.1,-0.3 9.9,-0.9c2.7,-0.6 4.9,-1.6 6.6,-3c1.7,-1.4 3,-3.2 3.8,-5.5c0.9,-2.4 1.3,-5.4 1.3,-9l0,-4.2c0,-4 -0.4,-7.3 -1.3,-9.7c-0.8,-2.4 -2.1,-4.2 -3.8,-5.5c-1.7,-1.3 -4,-2.2 -6.6,-2.7c-2.8,-0.5 -6.1,-0.8 -9.9,-0.8l-43,0l0,64.3l7.8,0l0,-25l40.3,24.9zm-5,-29.9l-35.2,0l0,-26.8l35.2,0c2.7,0 4.9,0.1 6.6,0.4c1.8,0.3 3.3,0.9 4.4,1.7c1.1,0.9 1.9,2.1 2.3,3.7c0.4,1.4 0.5,3.2 0.5,5.4l0,4.2c0,2.3 -0.2,4.2 -0.6,5.6c-0.4,1.6 -1.2,2.8 -2.3,3.7c-1.1,0.8 -2.6,1.4 -4.4,1.7c-1.7,0.2 -3.9,0.4 -6.5,0.4zm-33.2,-2l33.2,0c2.5,0 4.6,-0.1 6.2,-0.4c1.5,-0.2 2.6,-0.7 3.5,-1.3c0.8,-0.6 1.3,-1.5 1.6,-2.6c0.3,-1.3 0.5,-3 0.5,-5.1l0,-4.2c0,-2 -0.2,-3.7 -0.5,-5c-0.3,-1.1 -0.8,-2 -1.6,-2.6c-0.8,-0.6 -2,-1.1 -3.5,-1.3c-1.6,-0.2 -3.7,-0.4 -6.3,-0.4l-33.1,0l0,22.9z" class="st1"/>
     </g>
     <g stroke="null" id="svg_18">
      <g stroke="null" id="svg_19">
       <path stroke="null" id="svg_20" d="m26467.837582,18039.396689l0,26.3l-9.8,0l0,-43.5c0,-4.1 0.3,-7.7 1,-10.6c0.7,-2.9 1.8,-5.3 3.5,-7c1.7,-1.8 3.9,-3.1 6.7,-3.9c2.8,-0.8 6.3,-1.2 10.5,-1.2l38.8,0l0,9.7l-38.8,0c-4.3,0 -7.4,1 -9.2,3.1c-1.8,2 -2.7,5.4 -2.7,10.2l0,7.2l38.3,0l0,9.7l-38.3,0z" class="st1"/>
       <path stroke="null" id="svg_21" d="m26468.837582,18066.796689l-11.8,0l0,-44.5c0,-4.2 0.4,-7.8 1,-10.8c0.7,-3.1 2,-5.6 3.8,-7.5c1.8,-1.9 4.2,-3.3 7.1,-4.2c2.9,-0.8 6.5,-1.3 10.7,-1.3l39.8,0l0,11.7l-39.8,0c-4,0 -6.9,0.9 -8.4,2.7c-1.6,1.8 -2.4,5 -2.4,9.5l0,6.2l38.3,0l0,11.7l-38.3,0l0,26.5zm-9.8,-2l7.8,0l0,-26.3l38.3,0l0,-7.7l-38.3,0l0,-8.2c0,-5 1,-8.6 2.9,-10.8c2,-2.3 5.3,-3.4 9.9,-3.4l37.8,0l0,-7.7l-37.8,0c-4.1,0 -7.5,0.4 -10.2,1.2c-2.6,0.8 -4.7,2 -6.2,3.6c-1.5,1.6 -2.6,3.9 -3.3,6.6c-0.7,2.8 -1,6.3 -1,10.4l0,42.3l0.1,0z" class="st1"/>
      </g>
      <g stroke="null" id="svg_22">
       <path stroke="null" id="svg_23" d="m26546.937582,18065.796689c-4.2,0 -7.7,-0.4 -10.4,-1.2c-2.8,-0.8 -5,-2.1 -6.7,-3.9c-1.7,-1.8 -2.8,-4.1 -3.5,-7c-0.7,-2.9 -1,-6.4 -1,-10.6l0,-20.8c0,-4.1 0.3,-7.7 1,-10.6c0.7,-2.9 1.8,-5.3 3.5,-7c1.7,-1.8 3.9,-3.1 6.7,-3.9c2.8,-0.8 6.3,-1.2 10.4,-1.2l21.5,0c4.2,0 7.7,0.4 10.5,1.2c2.8,0.8 5,2.1 6.7,3.9c1.7,1.8 2.8,4.1 3.5,7c0.7,2.9 1,6.4 1,10.6l0,20.8c0,4.2 -0.3,7.7 -1,10.6c-0.7,2.9 -1.8,5.2 -3.5,7c-1.7,1.8 -3.9,3.1 -6.7,3.9c-2.8,0.8 -6.3,1.2 -10.5,1.2l-21.5,0zm33.4,-43.6c0,-2.5 -0.2,-4.6 -0.6,-6.3c-0.4,-1.7 -1,-3 -1.9,-4c-0.9,-1 -2.1,-1.7 -3.6,-2c-1.5,-0.4 -3.4,-0.6 -5.8,-0.6l-21.5,0c-2.5,0 -4.6,0.2 -6.1,0.6c-1.6,0.4 -2.8,1.1 -3.6,2c-0.8,1 -1.4,2.3 -1.7,4c-0.3,1.7 -0.4,3.8 -0.4,6.3l0,20.8c0,2.7 0.1,4.9 0.4,6.6c0.3,1.7 0.8,3 1.7,3.9c0.8,0.9 2,1.6 3.6,1.9c1.6,0.4 3.6,0.5 6.1,0.5l21.5,0c2.3,0 4.2,-0.2 5.8,-0.5c1.5,-0.4 2.7,-1 3.6,-1.9c0.9,-0.9 1.5,-2.2 1.9,-3.9c0.4,-1.7 0.6,-3.9 0.6,-6.6l0,-20.8z" class="st1"/>
       <path stroke="null" id="svg_24" d="m26568.337582,18066.796689l-21.5,0c-4.2,0 -7.9,-0.4 -10.7,-1.3c-3,-0.9 -5.4,-2.3 -7.1,-4.2c-1.8,-1.9 -3,-4.4 -3.8,-7.4c-0.7,-2.9 -1,-6.6 -1,-10.9l0,-20.8c0,-4.2 0.4,-7.8 1,-10.8c0.7,-3.1 2,-5.6 3.8,-7.5c1.8,-1.9 4.2,-3.3 7.1,-4.2c2.9,-0.8 6.5,-1.3 10.7,-1.3l21.5,0c4.3,0 7.9,0.4 10.8,1.3c3,0.9 5.4,2.3 7.1,4.2c1.8,1.9 3,4.4 3.8,7.5c0.7,3 1,6.6 1,10.8l0,20.9c0,4.3 -0.4,7.9 -1,10.9c-0.7,3 -2,5.5 -3.8,7.4c-1.8,1.9 -4.2,3.3 -7.1,4.2c-2.8,0.8 -6.5,1.2 -10.8,1.2zm-21.4,-66.2c-4.1,0 -7.5,0.4 -10.2,1.2c-2.6,0.8 -4.7,2 -6.2,3.6c-1.5,1.6 -2.6,3.9 -3.3,6.6c-0.7,2.8 -1,6.3 -1,10.4l0,20.7c0,4.1 0.3,7.6 1,10.4c0.6,2.7 1.7,4.9 3.3,6.5c1.5,1.6 3.6,2.9 6.2,3.6c2.7,0.8 6.1,1.2 10.2,1.2l21.5,0c4.1,0 7.6,-0.4 10.2,-1.2c2.6,-0.8 4.7,-2 6.2,-3.6c1.5,-1.6 2.6,-3.8 3.3,-6.5c0.7,-2.8 1,-6.3 1,-10.4l0,-20.8c0,-4 -0.3,-7.5 -1,-10.4c-0.6,-2.7 -1.7,-4.9 -3.3,-6.6c-1.5,-1.6 -3.6,-2.8 -6.2,-3.6c-2.7,-0.8 -6.1,-1.2 -10.2,-1.2l-21.5,0l0,0.1zm21.5,56.5l-21.5,0c-2.6,0 -4.7,-0.2 -6.4,-0.6c-1.7,-0.4 -3.1,-1.2 -4.1,-2.2c-1,-1.1 -1.6,-2.6 -1.9,-4.4c-0.3,-1.7 -0.4,-4 -0.4,-6.8l0,-20.8c0,-2.6 0.1,-4.8 0.4,-6.5c0.3,-1.9 1,-3.4 1.9,-4.5c1,-1.1 2.4,-1.9 4.1,-2.4c1.6,-0.4 3.8,-0.6 6.4,-0.6l21.5,0c2.4,0 4.4,0.2 6,0.6c1.7,0.4 3.1,1.2 4.1,2.3c1,1.1 1.7,2.6 2.1,4.5c0.4,1.7 0.6,3.9 0.6,6.5l0,20.8c0,2.8 -0.2,5.1 -0.6,6.8c-0.4,1.9 -1.1,3.3 -2.2,4.4c-1,1.1 -2.4,1.8 -4.1,2.2c-1.5,0.5 -3.5,0.7 -5.9,0.7zm-21.5,-46.8c-2.4,0 -4.4,0.2 -5.9,0.6c-1.3,0.3 -2.4,0.9 -3.1,1.7c-0.7,0.8 -1.2,2 -1.5,3.5c-0.3,1.6 -0.4,3.7 -0.4,6.2l0,20.8c0,2.7 0.1,4.8 0.4,6.4c0.2,1.5 0.7,2.6 1.4,3.4c0.7,0.8 1.7,1.3 3.1,1.6c1.5,0.3 3.5,0.5 5.9,0.5l21.5,0c2.2,0 4.1,-0.2 5.5,-0.5c1.3,-0.3 2.4,-0.9 3.1,-1.7c0.8,-0.8 1.3,-2 1.6,-3.5c0.4,-1.6 0.5,-3.8 0.5,-6.4l0,-20.8c0,-2.4 -0.2,-4.5 -0.5,-6.1c-0.3,-1.5 -0.9,-2.7 -1.7,-3.5c-0.8,-0.8 -1.8,-1.4 -3.2,-1.8c-1.4,-0.4 -3.3,-0.6 -5.5,-0.6l-21.2,0l0,0.2z" class="st1"/>
      </g>
     </g>
     <g stroke="null" id="svg_25">
      <path stroke="null" id="svg_26" d="m26701.937582,18065.796689c-4.2,0 -7.7,-0.4 -10.5,-1.2c-2.8,-0.8 -5,-2.1 -6.7,-3.9c-1.7,-1.8 -2.8,-4.1 -3.5,-7c-0.7,-2.9 -1,-6.4 -1,-10.6l0,-20.8c0,-4.1 0.3,-7.7 1,-10.6c0.7,-2.9 1.8,-5.3 3.5,-7c1.7,-1.8 3.9,-3.1 6.7,-3.9c2.8,-0.8 6.3,-1.2 10.5,-1.2l39.3,0l0,9.7l-39.3,0c-2.4,0 -4.4,0.2 -6,0.6c-1.6,0.4 -2.8,1.1 -3.6,2.1c-0.9,1 -1.5,2.3 -1.8,4c-0.3,1.7 -0.5,3.8 -0.5,6.3l0,20.6c0,2.5 0.2,4.6 0.5,6.3c0.3,1.7 0.9,3 1.8,4c0.9,1 2.1,1.7 3.7,2.1c1.6,0.4 3.6,0.6 6.1,0.6l39.2,0l0,9.7l-39.4,0l0,0.2z" class="st1"/>
      <path stroke="null" id="svg_27" d="m26742.337582,18066.796689l-40.3,0c-4.3,0 -7.9,-0.4 -10.7,-1.3c-3,-0.9 -5.4,-2.3 -7.1,-4.2c-1.8,-1.9 -3,-4.4 -3.8,-7.4c-0.7,-2.9 -1,-6.6 -1,-10.9l0,-20.8c0,-4.2 0.4,-7.8 1,-10.8c0.7,-3.1 2,-5.6 3.8,-7.5c1.8,-1.9 4.2,-3.3 7.1,-4.2c2.9,-0.8 6.5,-1.3 10.7,-1.3l40.3,0l0,11.7l-40.3,0c-2.3,0 -4.2,0.2 -5.7,0.6c-1.4,0.4 -2.4,1 -3.1,1.8c-0.8,0.9 -1.3,2.1 -1.5,3.6c-0.3,1.6 -0.4,3.7 -0.4,6.1l0,20.6c0,2.5 0.2,4.5 0.4,6.1c0.3,1.5 0.8,2.7 1.6,3.5c0.8,0.9 1.8,1.4 3.2,1.8c1.5,0.4 3.4,0.6 5.8,0.6l40.2,0l0,12l-0.2,0zm-40.4,-66.2c-4.1,0 -7.5,0.4 -10.2,1.2c-2.6,0.8 -4.7,2 -6.2,3.6c-1.5,1.6 -2.6,3.9 -3.3,6.6c-0.7,2.8 -1,6.3 -1,10.4l0,20.7c0,4.1 0.3,7.6 1,10.4c0.6,2.7 1.7,4.9 3.3,6.5c1.5,1.6 3.6,2.8 6.2,3.6c2.7,0.8 6.1,1.2 10.2,1.2l38.3,0l0,-7.7l-38.2,0c-2.6,0 -4.7,-0.2 -6.3,-0.6c-1.7,-0.4 -3.2,-1.2 -4.2,-2.4c-1,-1.1 -1.7,-2.7 -2.1,-4.5c-0.3,-1.7 -0.5,-3.9 -0.5,-6.5l0,-20.6c0,-2.6 0.2,-4.8 0.5,-6.5c0.3,-1.9 1,-3.4 2,-4.5c1,-1.2 2.4,-2 4.1,-2.4c1.6,-0.4 3.7,-0.7 6.2,-0.7l38.3,0l0,-7.7l-38.1,0l0,-0.1z" class="st1"/>
     </g>
    </g>
   </g>
  </g>
 </g>
</svg>
